<svg width="283" height="167" viewBox="0 0 283 167" fill="none" xmlns="http://www.w3.org/2000/svg">
<path fill-rule="evenodd" clip-rule="evenodd" d="M207.759 1.25C207.217 1.938 206.471 4.476 206.102 6.892C205.733 9.307 202.565 18.982 199.063 28.392C191.299 49.251 189.981 53.881 191.404 55.304C193.248 57.148 196.332 53.128 197.541 47.302C198.166 44.291 201.295 34.553 204.495 25.663C210.953 7.72 212.68 0 210.236 0C209.416 0 208.301 0.563 207.759 1.25ZM23.283 8.341C14.247 11.42 9.32002 15.888 14.75 16.079C15.988 16.122 16.547 16.348 15.993 16.581C15.371 16.843 15.123 21.31 15.343 28.269L15.701 39.534L11.851 41.498L8.00002 43.463L11.672 43.787C15.142 44.094 15.379 44.341 15.995 48.306C17.065 55.197 17.484 56 20.008 56C23.242 56 23.435 55.369 22.221 48.75C21.64 45.588 21.46 42.707 21.819 42.348C22.999 41.168 28.268 41.829 31.666 43.582C33.5 44.529 38.375 48.426 42.5 52.242C50.67 59.8 59.66 65 64.555 65C69.454 65 67.591 63.117 60.104 60.501C54.284 58.467 52.009 56.904 45.121 50.203C36.039 41.368 33.727 39.854 28.089 39.055L24.177 38.5L31.233 33.813C41.317 27.113 45.568 23.1 47.708 18.262C49.924 13.254 49.145 10.974 44.186 7.95C39.847 5.304 31.748 5.456 23.283 8.341ZM114.45 8.093C113.834 9.244 113.614 11.317 113.96 12.698C114.307 14.08 114.307 17.107 113.959 19.424C113.435 22.92 112.732 23.959 109.838 25.518C101.643 29.931 89.5 47.071 89.5 54.225C89.5 62.612 94.458 63.229 101.745 55.75C112.21 45.008 117.256 32.765 118.232 15.75C118.721 7.222 118.589 6 117.181 6C116.295 6 115.066 6.942 114.45 8.093ZM175 6.655C158.797 10.081 135.636 16.544 134.039 18.085C129.673 22.299 134.066 21.858 154 16.082C165 12.895 175.125 10.017 176.5 9.687C177.875 9.357 179.9 8.407 181 7.575C182.925 6.12 182.888 6.067 180 6.148C178.35 6.194 176.1 6.422 175 6.655ZM40.916 10.93C41.787 11.653 42.5 13.749 42.5 15.588C42.5 19.968 38.324 24.708 28.811 31.127L21.5 36.061V26.437C21.5 17.746 21.311 16.763 19.556 16.304C17.709 15.821 17.698 15.703 19.341 13.94C22.416 10.639 27.63 8.947 33.666 9.292C36.782 9.47 40.045 10.207 40.916 10.93ZM169.107 23.449C161.087 25.571 139.258 33.045 135.5 34.955C133.258 36.095 133.638 38.564 135.992 38.151C137.087 37.959 142.037 36.069 146.992 33.953C151.946 31.836 161.601 28.507 168.447 26.555C186.987 21.27 187.562 18.565 169.107 23.449ZM221.551 24.662C220.391 26.136 218.943 29.328 218.332 31.755C217.187 36.301 215.547 35.964 215.515 31.177C215.505 29.549 215 28.95 213.832 29.177C212.393 29.456 212.134 31.251 211.942 42.259C211.82 49.277 212.085 55.243 212.53 55.518C214.297 56.61 216.448 52.614 218.059 45.246C220.219 35.374 221.429 33.079 221.47 38.782C221.486 41.137 222.175 44.68 223 46.654C224.428 50.072 224.608 50.174 226.75 48.78C227.987 47.975 230.397 45.213 232.104 42.642L235.209 37.968L235.782 45.549C236.392 53.606 238.347 58 241.323 58C244.745 58 245.531 55.961 243.282 52.919C241.333 50.283 241.235 49.197 241.755 36.051C242.061 28.323 242.017 22.007 241.656 22.015C239.823 22.058 238.147 24.327 234.602 31.562C232.463 35.928 230.023 40.4 229.181 41.5C227.68 43.461 227.628 43.445 226.575 40.685C225.984 39.137 225.5 34.551 225.5 30.494C225.5 26.437 225.086 22.862 224.58 22.549C224.074 22.237 222.711 23.187 221.551 24.662ZM262 23.573C254.179 27.639 249.427 35.289 248.738 44.921C248.3 51.042 248.475 51.899 250.565 53.846C253.924 56.975 259.253 56.696 264.1 53.136C271.802 47.478 274.503 43.075 274.496 36.185C274.492 31.854 271.497 26.451 268.589 25.528C267.463 25.171 266.644 24.399 266.77 23.814C267.155 22.031 265.16 21.93 262 23.573ZM83.786 25.517C77.478 27.389 71.212 31.403 63.826 38.305C56.964 44.717 53.967 49.745 55.023 53.071C55.756 55.383 59.432 56.464 63.678 55.614C67.609 54.828 84.99 46.635 85.92 45.129C87.014 43.36 85.363 43.744 75.493 47.556C65.202 51.53 61.175 51.73 60.686 48.29C60.414 46.377 61.969 45.279 72.269 40.116C85.202 33.633 90.5 29.826 90.5 27.018C90.5 24.482 88.662 24.071 83.786 25.517ZM266.511 28.506C270.865 30.757 272.338 36.516 270.077 42.439C268.127 47.545 263.458 52 260.058 52C256.71 52 252.5 48.307 252.5 45.37C252.5 40.527 254.716 34.193 257.661 30.621C260.971 26.605 262.246 26.3 266.511 28.506ZM112.5 29.843C112.5 31.952 108.466 42.091 106.228 45.606C100.241 55.009 94.5 58.085 94.5 51.89C94.5 45.149 105.873 29 110.621 29C111.654 29 112.5 29.38 112.5 29.843ZM82.464 31.452C81.659 32.25 78.305 34.092 75.011 35.545C69.599 37.932 69.199 37.99 70.87 36.144C72.94 33.856 80.215 30.002 82.464 30.001C83.75 30 83.75 30.177 82.464 31.452ZM173.881 41.508C162.394 44.512 155.678 46.732 133 55.019C128.168 56.785 125.39 59.224 126.709 60.542C127.06 60.894 130.869 59.597 135.174 57.661C147.666 52.043 152.678 50.249 170.811 44.908C180.211 42.14 188.599 39.466 189.451 38.968C192.543 37.158 187.158 38.036 173.881 41.508Z" fill="#EA0100"/>
<path fill-rule="evenodd" clip-rule="evenodd" d="M260.898 71.8008C181.549 67.1307 15.9923 74.3394 6.24167 82.8868C-0.464088 88.7661 -0.871157 93.6297 5.40968 92.8091C64.8523 85.0175 146.687 79.591 201.435 79.8128C270.734 80.0944 294.191 78.4023 277.588 74.3062C273.119 73.2044 265.608 72.08 260.898 71.8008Z" fill="#EA0100"/>
<path fill-rule="evenodd" clip-rule="evenodd" d="M103.955 99.5556C102.58 99.7806 92.2305 102.233 80.9555 105.004C67.4015 108.335 59.7915 110.688 58.4945 111.947C54.0975 116.217 58.6385 115.672 80.8315 109.267C103.824 102.631 106.955 101.501 106.955 99.8386C106.955 99.3076 106.843 98.9346 106.705 99.0096C106.567 99.0846 105.33 99.3306 103.955 99.5556ZM156.495 104.173C155.666 105.438 154.186 111.625 153.206 117.923L151.424 129.374L146.634 131.966C138.005 136.634 136.374 140.149 143.713 138.26C145.771 137.73 147.347 136.765 147.215 136.115C147.083 135.465 147.849 134.466 148.917 133.894C150.789 132.893 150.837 133.162 150.258 141.365C149.688 149.441 149.761 149.874 151.684 149.874C154.795 149.874 155.633 148.034 156.368 139.589C156.74 135.307 157.278 131.197 157.562 130.455C157.847 129.714 161.888 126.78 166.542 123.936C171.197 121.091 174.731 118.321 174.396 117.778C173.497 116.324 170.46 117.582 164.11 122.037C160.37 124.66 158.363 125.559 158.184 124.689C158.036 123.966 158.731 118.537 159.729 112.624C161.462 102.354 161.464 101.874 159.772 101.874C158.798 101.874 157.323 102.909 156.495 104.173ZM93.3405 117.403C88.3275 118.71 79.4355 121.6 73.5815 123.826C67.7265 126.052 62.3205 127.874 61.5685 127.874C59.6155 127.874 57.4395 130.758 58.5525 131.871C59.1015 132.42 63.1035 131.223 68.6185 128.86C77.2555 125.158 99.6025 117.874 102.322 117.874C103.01 117.874 104.446 117.213 105.514 116.406C107.386 114.99 107.366 114.939 104.955 114.983C103.58 115.008 98.3535 116.097 93.3405 117.403ZM129.437 118.488C128.105 119.925 125.644 124.538 123.968 128.738L120.922 136.374L121.492 130.374C121.806 127.074 122.151 123.288 122.259 121.961C122.535 118.567 120.406 118.255 118.353 121.39C116.005 124.972 114.886 149.878 117.072 149.867C119.206 149.857 122.583 144.174 125.66 135.418L128.455 127.463L129.089 134.516C130.239 147.298 133.38 158.062 136.282 159.165C137.872 159.77 141.955 158.177 141.955 156.952C141.955 156.409 140.883 154.893 139.573 153.583C136.491 150.501 135.052 143.608 134.27 128.183C133.927 121.413 133.244 115.874 132.753 115.874C132.262 115.874 130.769 117.05 129.437 118.488ZM209.201 118.124C208.651 118.812 207.881 122.074 207.489 125.374C207.096 128.674 205.972 135.32 204.991 140.143C203.95 145.255 203.589 149.148 204.125 149.479C205.961 150.614 209.659 146.937 211.431 142.212C216.067 129.855 220.3 124.049 226.705 121.262C229.794 119.917 231.132 117.874 228.923 117.874C226.966 117.874 220.554 120.942 217.259 123.456L213.955 125.976V121.425C213.955 117.64 213.639 116.874 212.077 116.874C211.045 116.874 209.75 117.437 209.201 118.124ZM190.365 121.846C182.371 125.865 172.417 134.23 169.302 139.545C164.735 147.339 168.312 151.538 177.296 148.927C183.182 147.217 197.955 140.007 197.955 138.845C197.955 137.522 198.293 137.435 187.948 141.43C177.712 145.383 173.63 145.599 173.147 142.214C172.885 140.371 174.622 139.133 185.001 133.768C197.509 127.303 202.955 123.27 202.955 120.473C202.955 117.872 196.968 118.525 190.365 121.846ZM195.391 124.977C194.577 126.294 185.042 130.85 183.07 130.864C181.218 130.877 185.956 127.21 190.139 125.393C194.145 123.652 196.316 123.481 195.391 124.977ZM109.455 132.565C90.9235 136.819 53.3955 149.587 51.7305 152.204C50.5855 154.004 50.8185 155.148 52.2055 154.538C65.3305 148.759 83.7555 142.02 96.3405 138.396C112.27 133.809 117.542 131.846 113.455 132.02C112.355 132.067 110.555 132.313 109.455 132.565Z" fill="#EA0100"/>
</svg>
