<svg width="267" height="65" viewBox="0 0 267 65" fill="none" xmlns="http://www.w3.org/2000/svg">
<path fill-rule="evenodd" clip-rule="evenodd" d="M200.259 1.25C199.717 1.938 198.971 4.476 198.602 6.892C198.233 9.307 195.065 18.982 191.563 28.392C183.799 49.251 182.481 53.881 183.904 55.304C185.748 57.148 188.832 53.128 190.041 47.302C190.666 44.291 193.795 34.553 196.995 25.663C203.453 7.72 205.18 0 202.736 0C201.916 0 200.801 0.563 200.259 1.25ZM15.783 8.341C6.747 11.42 1.82 15.888 7.25 16.079C8.488 16.122 9.047 16.348 8.493 16.581C7.871 16.843 7.623 21.31 7.843 28.269L8.201 39.534L4.351 41.498L0.5 43.463L4.172 43.787C7.642 44.094 7.879 44.341 8.495 48.306C9.565 55.197 9.984 56 12.508 56C15.742 56 15.935 55.369 14.721 48.75C14.14 45.588 13.96 42.707 14.319 42.348C15.499 41.168 20.768 41.829 24.166 43.582C26 44.529 30.875 48.426 35 52.242C43.17 59.8 52.16 65 57.055 65C61.954 65 60.091 63.117 52.604 60.501C46.784 58.467 44.509 56.904 37.621 50.203C28.539 41.368 26.227 39.854 20.589 39.055L16.677 38.5L23.733 33.813C33.817 27.113 38.068 23.1 40.208 18.262C42.424 13.254 41.645 10.974 36.686 7.95C32.347 5.304 24.248 5.456 15.783 8.341ZM106.95 8.093C106.334 9.244 106.114 11.317 106.46 12.698C106.807 14.08 106.807 17.107 106.459 19.424C105.935 22.92 105.232 23.959 102.338 25.518C94.143 29.931 82 47.071 82 54.225C82 62.612 86.958 63.229 94.245 55.75C104.71 45.008 109.756 32.765 110.732 15.75C111.221 7.222 111.089 6 109.681 6C108.795 6 107.566 6.942 106.95 8.093ZM167.5 6.655C151.297 10.081 128.136 16.544 126.539 18.085C122.173 22.299 126.566 21.858 146.5 16.082C157.5 12.895 167.625 10.017 169 9.687C170.375 9.357 172.4 8.407 173.5 7.575C175.425 6.12 175.388 6.067 172.5 6.148C170.85 6.194 168.6 6.422 167.5 6.655ZM33.416 10.93C34.287 11.653 35 13.749 35 15.588C35 19.968 30.824 24.708 21.311 31.127L14 36.061V26.437C14 17.746 13.811 16.763 12.056 16.304C10.209 15.821 10.198 15.703 11.841 13.94C14.916 10.639 20.13 8.947 26.166 9.292C29.282 9.47 32.545 10.207 33.416 10.93ZM161.607 23.449C153.587 25.571 131.758 33.045 128 34.955C125.758 36.095 126.138 38.564 128.492 38.151C129.587 37.959 134.537 36.069 139.492 33.953C144.446 31.836 154.101 28.507 160.947 26.555C179.487 21.27 180.062 18.565 161.607 23.449ZM214.051 24.662C212.891 26.136 211.443 29.328 210.832 31.755C209.687 36.301 208.047 35.964 208.015 31.177C208.005 29.549 207.5 28.95 206.332 29.177C204.893 29.456 204.634 31.251 204.442 42.259C204.32 49.277 204.585 55.243 205.03 55.518C206.797 56.61 208.948 52.614 210.559 45.246C212.719 35.374 213.929 33.079 213.97 38.782C213.986 41.137 214.675 44.68 215.5 46.654C216.928 50.072 217.108 50.174 219.25 48.78C220.487 47.975 222.897 45.213 224.604 42.642L227.709 37.968L228.282 45.549C228.892 53.606 230.847 58 233.823 58C237.245 58 238.031 55.961 235.782 52.919C233.833 50.283 233.735 49.197 234.255 36.051C234.561 28.323 234.517 22.007 234.156 22.015C232.323 22.058 230.647 24.327 227.102 31.562C224.963 35.928 222.523 40.4 221.681 41.5C220.18 43.461 220.128 43.445 219.075 40.685C218.484 39.137 218 34.551 218 30.494C218 26.437 217.586 22.862 217.08 22.549C216.574 22.237 215.211 23.187 214.051 24.662ZM254.5 23.573C246.679 27.639 241.927 35.289 241.238 44.921C240.8 51.042 240.975 51.899 243.065 53.846C246.424 56.975 251.753 56.696 256.6 53.136C264.302 47.478 267.003 43.075 266.996 36.185C266.992 31.854 263.997 26.451 261.089 25.528C259.963 25.171 259.144 24.399 259.27 23.814C259.655 22.031 257.66 21.93 254.5 23.573ZM76.286 25.517C69.978 27.389 63.712 31.403 56.326 38.305C49.464 44.717 46.467 49.745 47.523 53.071C48.256 55.383 51.932 56.464 56.178 55.614C60.109 54.828 77.49 46.635 78.42 45.129C79.514 43.36 77.863 43.744 67.993 47.556C57.702 51.53 53.675 51.73 53.186 48.29C52.914 46.377 54.469 45.279 64.769 40.116C77.702 33.633 83 29.826 83 27.018C83 24.482 81.162 24.071 76.286 25.517ZM259.011 28.506C263.365 30.757 264.838 36.516 262.577 42.439C260.627 47.545 255.958 52 252.558 52C249.21 52 245 48.307 245 45.37C245 40.527 247.216 34.193 250.161 30.621C253.471 26.605 254.746 26.3 259.011 28.506ZM105 29.843C105 31.952 100.966 42.091 98.728 45.606C92.741 55.009 87 58.085 87 51.89C87 45.149 98.373 29 103.121 29C104.154 29 105 29.38 105 29.843ZM74.964 31.452C74.159 32.25 70.805 34.092 67.511 35.545C62.099 37.932 61.699 37.99 63.37 36.144C65.44 33.856 72.715 30.002 74.964 30.001C76.25 30 76.25 30.177 74.964 31.452ZM166.381 41.508C154.894 44.512 148.178 46.732 125.5 55.019C120.668 56.785 117.89 59.224 119.209 60.542C119.56 60.894 123.369 59.597 127.674 57.661C140.166 52.043 145.178 50.249 163.311 44.908C172.711 42.14 181.099 39.466 181.951 38.968C185.043 37.158 179.658 38.036 166.381 41.508Z" fill="#221f27"/>
</svg>
